<svg width="38" height="32" viewBox="0 0 38 32" fill="none" xmlns="http://www.w3.org/2000/svg">
<path fill-rule="evenodd" clip-rule="evenodd" d="M19.0199 4.7691L17.1169 2.86605C16.2249 1.96208 15.163 1.24347 13.9922 0.751595C12.8214 0.259724 11.5649 0.00430845 10.2949 5.40396e-05C9.025 -0.00420038 7.76678 0.242791 6.5927 0.726807C5.41863 1.21082 4.35189 1.9223 3.45391 2.82028C2.55594 3.71826 1.84446 4.78499 1.36044 5.95907C0.876427 7.13314 0.629436 8.39137 0.633691 9.66129C0.637945 10.9312 0.893361 12.1878 1.38523 13.3586C1.8771 14.5294 2.59571 15.5913 3.49969 16.4833L18.9744 31.958L18.9779 31.9545L19.0234 32L34.4982 16.5253C35.4021 15.6333 36.1207 14.5714 36.6126 13.4006C37.1045 12.2298 37.3599 10.9732 37.3642 9.70331C37.3684 8.43338 37.1214 7.17516 36.6374 6.00109C36.1534 4.82701 35.4419 3.76027 34.5439 2.8623C33.646 1.96432 32.5792 1.25284 31.4051 0.768824C30.2311 0.284808 28.9729 0.0378171 27.7029 0.0420715C26.433 0.0463259 25.1765 0.301742 24.0057 0.793613C22.8349 1.28548 21.7729 2.00409 20.881 2.90807L19.0199 4.7691ZM18.9779 27.0034L27.6195 18.36L30.1581 15.909H30.1616L32.0226 14.0497C33.1718 12.9005 33.8174 11.3419 33.8174 9.71667C33.8174 8.09145 33.1718 6.5328 32.0226 5.3836C30.8734 4.2344 29.3148 3.58879 27.6896 3.58879C26.0644 3.58879 24.5057 4.2344 23.3565 5.3836L19.0217 9.72017L14.6414 5.34334C13.4922 4.19414 11.9335 3.54852 10.3083 3.54852C8.68307 3.54852 7.12442 4.19414 5.97522 5.34334C4.82602 6.49254 4.18041 8.05119 4.18041 9.6764C4.18041 11.3016 4.82602 12.8603 5.97522 14.0095L10.4221 18.4563L10.4238 18.4511L18.9779 27.0052V27.0034Z" fill="black"/>
</svg>
