<svg width="162" height="107" viewBox="0 0 162 107" fill="none" xmlns="http://www.w3.org/2000/svg">
<path d="M40.5306 41.376C40.6266 42.656 40.3066 43.792 39.5706 44.784C38.8666 45.744 37.9066 46.496 36.6906 47.04C35.5066 47.552 34.1626 47.968 32.6586 48.288C31.1546 48.64 29.6506 48.784 28.1466 48.72C26.6426 48.656 25.2346 48.544 23.9226 48.384C19.3786 47.616 15.4426 45.52 12.1146 42.096L12.8346 41.52C14.6586 43.344 16.7066 44.8 18.9786 45.888C21.2506 46.976 23.4426 47.52 25.5546 47.52C28.0826 47.52 30.2426 47.056 32.0346 46.128C33.8586 45.168 34.7866 43.872 34.8186 42.24C34.8506 40.768 34.4026 39.376 33.4746 38.064C32.5786 36.752 31.3946 35.6 29.9226 34.608C28.4826 33.616 26.8826 32.656 25.1226 31.728C23.3626 30.768 21.6186 29.824 19.8906 28.896C18.1946 27.936 16.6746 26.96 15.3306 25.968C14.0186 24.976 13.0266 23.824 12.3546 22.512C11.6826 21.168 11.5066 19.744 11.8266 18.24C12.2426 16.448 13.3146 15.008 15.0426 13.92C16.8026 12.8 18.8506 12.112 21.1866 11.856C23.5226 11.568 25.8906 11.536 28.2906 11.76C30.7226 11.952 32.9306 12.448 34.9146 13.248C36.9306 14.048 38.3546 14.992 39.1866 16.08C40.0826 17.36 40.1146 18.432 39.2826 19.296C38.5786 20 37.7306 20.128 36.7386 19.68C36.0986 19.36 35.5866 18.848 35.2026 18.144C34.5946 16.928 33.7946 15.888 32.8026 15.024C31.8426 14.128 30.8186 13.472 29.7306 13.056C28.6426 12.64 27.5226 12.368 26.3706 12.24C25.2186 12.112 24.1146 12.208 23.0586 12.528C22.0346 12.848 21.1066 13.312 20.2746 13.92C19.4426 14.528 18.7706 15.344 18.2586 16.368C17.7786 17.392 17.5386 18.544 17.5386 19.824C17.5066 21.136 17.6986 22.368 18.1146 23.52C18.5306 24.672 19.0906 25.664 19.7946 26.496C20.5306 27.296 21.3786 28.064 22.3386 28.8C23.2986 29.504 24.3226 30.112 25.4106 30.624C26.4986 31.136 27.6186 31.664 28.7706 32.208C29.9226 32.72 31.0426 33.2 32.1306 33.648C33.2186 34.064 34.2586 34.56 35.2506 35.136C36.2426 35.68 37.1066 36.24 37.8426 36.816C38.6106 37.36 39.2346 38.032 39.7146 38.832C40.1946 39.6 40.4666 40.448 40.5306 41.376ZM72.709 20.496C72.709 21.584 72.629 23.008 72.469 24.768C72.309 26.528 72.149 28.128 71.989 29.568C71.829 31.008 71.749 32.64 71.749 34.464C71.749 36.256 71.861 37.888 72.085 39.36C72.309 40.832 72.773 42.352 73.477 43.92C74.213 45.456 75.157 46.816 76.309 48C71.349 49.024 68.213 47.616 66.901 43.776C66.517 42.624 66.261 41.264 66.133 39.696C66.005 38.128 66.005 36.464 66.133 34.704C66.261 32.944 66.405 31.312 66.565 29.808C66.725 28.304 66.917 26.64 67.141 24.816C67.397 22.992 67.573 21.616 67.669 20.688C68.085 15.76 67.029 13.28 64.501 13.248C62.677 13.216 60.613 14.736 58.309 17.808C56.805 19.76 55.397 22.352 54.085 25.584C52.773 28.816 51.717 32.032 50.917 35.232C50.117 38.432 49.493 41.104 49.045 43.248C48.597 45.36 48.309 46.944 48.181 48H42.661C42.629 42.4 42.613 26.64 42.613 0.719996H48.181C48.181 25.232 48.181 39.264 48.181 42.816C50.677 30.304 53.941 21.552 57.973 16.56C59.445 14.736 60.933 13.424 62.437 12.624C63.973 11.824 65.413 11.536 66.757 11.76C70.725 12.4 72.709 15.312 72.709 20.496ZM80.9481 7.296C80.2121 8.032 79.3001 8.4 78.2121 8.4C77.1561 8.4 76.2601 8.032 75.5241 7.296C74.7881 6.528 74.4201 5.616 74.4201 4.56C74.4201 3.504 74.7881 2.608 75.5241 1.872C76.2601 1.104 77.1561 0.719996 78.2121 0.719996C79.3001 0.719996 80.2121 1.104 80.9481 1.872C81.6841 2.608 82.0521 3.504 82.0521 4.56C82.0521 5.616 81.6841 6.528 80.9481 7.296ZM80.9961 34.752C81.0281 41.312 82.5801 45.728 85.6521 48C80.6921 49.024 77.5561 47.616 76.2441 43.776C75.6361 41.92 75.3641 38.912 75.4281 34.752C75.4281 32.224 75.4281 28.432 75.4281 23.376C75.4601 18.32 75.4761 14.512 75.4761 11.952H80.9961V34.752ZM116.855 12.96L92.4708 46.992H116.855V48H85.5588V46.992L110.039 12.96H85.5588V11.952H116.855V12.96ZM145.406 25.92C145.406 26.24 145.39 27.216 145.358 28.848C145.326 30.448 145.31 31.568 145.31 32.208C145.342 32.848 145.39 33.92 145.454 35.424C145.518 36.896 145.63 38.08 145.79 38.976C145.982 39.84 146.222 40.88 146.51 42.096C146.798 43.28 147.198 44.352 147.71 45.312C148.222 46.24 148.814 47.104 149.486 47.904C147.886 48.224 146.478 48.192 145.262 47.808C144.078 47.392 143.134 46.768 142.43 45.936C141.726 45.104 141.15 44.032 140.702 42.72C140.286 41.376 139.998 40.048 139.838 38.736C139.71 37.424 139.63 35.952 139.598 34.32C136.43 42.384 132.062 47.04 126.494 48.288C124.158 48.832 121.966 48.688 119.918 47.856C117.902 46.992 116.558 45.68 115.886 43.92C115.182 42.064 115.246 40.352 116.078 38.784C116.942 37.184 118.254 35.84 120.014 34.752C120.718 34.304 121.662 33.776 122.846 33.168C124.062 32.56 125.198 32 126.254 31.488C127.342 30.944 128.494 30.336 129.71 29.664C130.958 28.96 132.078 28.24 133.07 27.504C134.062 26.736 134.974 25.92 135.806 25.056C136.67 24.192 137.342 23.216 137.822 22.128C138.302 21.04 138.558 19.888 138.59 18.672C137.79 16.816 136.638 15.36 135.134 14.304C133.662 13.216 132.11 12.64 130.478 12.576C128.878 12.512 127.246 12.992 125.582 14.016C123.95 15.008 122.59 16.512 121.502 18.528C120.638 20.096 119.63 20.72 118.478 20.4C117.614 20.144 117.118 19.536 116.99 18.576C116.926 18.032 117.038 17.504 117.326 16.992C117.838 16.16 118.622 15.392 119.678 14.688C120.766 13.984 122.014 13.408 123.422 12.96C124.862 12.48 126.398 12.16 128.03 12C129.662 11.84 131.294 11.84 132.926 12C134.558 12.128 136.126 12.528 137.63 13.2C139.166 13.84 140.51 14.688 141.662 15.744C142.814 16.8 143.726 18.208 144.398 19.968C145.102 21.728 145.438 23.712 145.406 25.92ZM132.158 43.92C135.038 42.032 137.534 38.08 139.646 32.064C139.646 31.168 139.678 30.032 139.742 28.656C139.838 27.28 139.886 26.416 139.886 26.064C139.95 24.016 139.726 22.128 139.214 20.4C138.99 21.776 138.398 23.12 137.438 24.432C136.51 25.712 135.422 26.816 134.174 27.744C132.926 28.672 131.582 29.632 130.142 30.624C128.702 31.616 127.358 32.528 126.11 33.36C124.894 34.192 123.838 35.136 122.942 36.192C122.078 37.248 121.566 38.32 121.406 39.408C121.214 40.56 121.31 41.584 121.694 42.48C122.11 43.344 122.702 44 123.47 44.448C124.27 44.896 125.15 45.2 126.11 45.36C127.102 45.488 128.126 45.424 129.182 45.168C130.27 44.912 131.262 44.496 132.158 43.92ZM27.5569 79.584C27.5569 80.32 27.4449 81.36 27.2209 82.704C26.9969 84.016 26.8209 85.2 26.6929 86.256C26.5969 87.312 26.5969 88.464 26.6929 89.712C26.8209 90.928 27.2529 92.096 27.9889 93.216C28.7249 94.304 29.7809 95.264 31.1569 96.096C29.4929 96.576 28.0049 96.72 26.6929 96.528C25.4129 96.368 24.3729 96.032 23.5729 95.52C22.8049 95.008 22.1969 94.352 21.7489 93.552C21.4289 92.976 21.1889 92.288 21.0289 91.488C20.9009 90.688 20.8369 89.92 20.8369 89.184C20.8689 88.448 20.9489 87.6 21.0769 86.64C21.2369 85.648 21.3809 84.832 21.5089 84.192C21.6689 83.52 21.8449 82.704 22.0369 81.744C22.2609 80.784 22.4209 80.112 22.5169 79.728C22.8369 78.128 22.5009 76.832 21.5089 75.84C20.9329 75.296 20.2769 74.96 19.5409 74.832C18.8369 74.672 18.1329 74.704 17.4289 74.928C16.7249 75.12 16.0049 75.424 15.2689 75.84C14.5649 76.256 13.9249 76.72 13.3489 77.232C12.7729 77.744 12.2609 78.272 11.8129 78.816C10.7889 80.128 9.89294 81.968 9.12494 84.336C8.38894 86.704 7.65294 89.68 6.91694 93.264C6.82094 93.68 6.74094 94.064 6.67694 94.416C6.61294 94.768 6.56494 95.072 6.53294 95.328C6.50094 95.584 6.46894 95.808 6.43694 96H0.86894V48.72H6.43694V90.816C7.23694 86.752 8.34094 82.384 9.74894 77.712C13.1409 66.448 17.2849 60.4 22.1809 59.568C23.6849 59.312 25.1249 59.52 26.5009 60.192C27.9089 60.832 29.0609 61.84 29.9569 63.216C30.7249 64.368 30.9969 65.28 30.7729 65.952C30.6449 66.4 30.3569 66.768 29.9089 67.056C29.4929 67.312 29.0289 67.408 28.5169 67.344C27.2049 67.216 26.3089 66.112 25.8289 64.032C25.2209 61.504 23.9889 60.368 22.1329 60.624C20.7889 60.816 19.4609 61.584 18.1489 62.928C16.8369 64.272 15.6849 65.936 14.6929 67.92C13.7329 69.904 12.9009 71.84 12.1969 73.728C11.4929 75.584 10.9009 77.408 10.4209 79.2C10.6449 78.848 10.8689 78.528 11.0929 78.24C14.2929 74.208 18.0369 72.688 22.3249 73.68C23.8609 74.032 25.1089 74.736 26.0689 75.792C27.0609 76.816 27.5569 78.08 27.5569 79.584ZM72.9649 96H68.5969C68.5969 91.552 68.7089 88.128 68.9329 85.728C69.1889 83.296 69.6369 80.528 70.2769 77.424C70.9169 74.288 71.4289 71.52 71.8129 69.12C71.9409 68.224 71.9729 67.456 71.9089 66.816C71.8449 66.144 71.7009 65.584 71.4769 65.136C71.2849 64.688 71.0289 64.352 70.7089 64.128C70.4209 63.872 70.1009 63.744 69.7489 63.744C68.6289 63.712 67.8129 64.4 67.3009 65.808C66.8209 67.184 66.5489 69.136 66.4849 71.664C66.4849 72.304 66.5809 74.064 66.7729 76.944C66.9649 79.824 67.0289 82.64 66.9649 85.392C66.9009 88.144 66.5969 90.416 66.0529 92.208C65.7649 93.072 65.4129 93.792 64.9969 94.368C64.5809 94.944 64.0529 95.376 63.4129 95.664C62.8049 95.952 62.0689 96.096 61.2049 96.096C60.2769 96.096 59.4289 95.856 58.6609 95.376C57.9249 94.864 57.3329 94.16 56.8849 93.264C56.4689 92.336 56.1009 91.392 55.7809 90.432C55.4929 89.472 55.2849 88.4 55.1569 87.216C55.0289 86.032 54.9329 85.04 54.8689 84.24C54.8369 83.44 54.8209 82.608 54.8209 81.744C51.6209 90.16 47.1729 95.008 41.4769 96.288C39.1409 96.832 36.9489 96.688 34.9009 95.856C32.8849 94.992 31.5409 93.68 30.8689 91.92C30.1649 90.064 30.2289 88.352 31.0609 86.784C31.9249 85.184 33.2369 83.84 34.9969 82.752C35.7969 82.24 36.9329 81.616 38.4049 80.88C39.8769 80.144 41.2209 79.472 42.4369 78.864C43.6849 78.256 45.0129 77.504 46.4209 76.608C47.8289 75.712 49.0289 74.816 50.0209 73.92C51.0129 73.024 51.8449 71.952 52.5169 70.704C53.1889 69.424 53.5569 68.08 53.6209 66.672C52.7889 64.816 51.6209 63.36 50.1169 62.304C48.6449 61.216 47.0929 60.64 45.4609 60.576C43.8609 60.512 42.2289 60.992 40.5649 62.016C38.9329 63.008 37.5729 64.512 36.4849 66.528C35.6209 68.096 34.6129 68.72 33.4609 68.4C32.5969 68.144 32.1009 67.536 31.9729 66.576C31.9089 66.032 32.0209 65.504 32.3089 64.992C32.7889 64.224 33.5089 63.504 34.4689 62.832C35.4609 62.16 36.5969 61.6 37.8769 61.152C39.1569 60.672 40.5489 60.32 42.0529 60.096C43.5889 59.872 45.1249 59.792 46.6609 59.856C48.1969 59.92 49.7009 60.192 51.1729 60.672C52.6769 61.12 54.0209 61.744 55.2049 62.544C56.4209 63.344 57.4609 64.432 58.3249 65.808C59.2209 67.184 59.8129 68.768 60.1009 70.56C60.3569 71.936 60.4849 73.76 60.4849 76.032C60.5169 78.272 60.5009 80.416 60.4369 82.464C60.4049 84.48 60.3889 86.448 60.3889 88.368C60.4209 90.256 60.5969 91.776 60.9169 92.928C61.2689 94.048 61.7969 94.608 62.5009 94.608C63.2369 94.608 63.8449 94.24 64.3249 93.504C64.8049 92.768 65.1569 91.776 65.3809 90.528C65.6049 89.248 65.7489 87.872 65.8129 86.4C65.9089 84.928 65.9249 83.36 65.8609 81.696C65.8289 80.032 65.7649 78.528 65.6689 77.184C65.6049 75.84 65.5249 74.576 65.4289 73.392C65.3649 72.208 65.3329 71.44 65.3329 71.088C65.3009 69.36 65.3329 67.84 65.4289 66.528C65.5569 65.216 65.7649 64 66.0529 62.88C66.3729 61.728 66.8209 60.864 67.3969 60.288C67.9729 59.68 68.7089 59.376 69.6049 59.376C70.2769 59.376 70.8529 59.504 71.3329 59.76C71.8129 59.984 72.1649 60.336 72.3889 60.816C72.6449 61.264 72.8369 61.744 72.9649 62.256C73.0929 62.768 73.1569 63.376 73.1569 64.08C73.1569 64.784 73.1409 65.408 73.1089 65.952C73.0769 66.464 73.0129 67.072 72.9169 67.776C72.8529 68.48 72.8209 68.992 72.8209 69.312C72.6289 73.184 72.7889 77.264 73.3009 81.552C73.8449 85.808 74.1169 88.944 74.1169 90.96C74.1169 90.928 74.1329 90.88 74.1649 90.816C76.6289 78.304 79.8769 69.552 83.9089 64.56C85.3809 62.736 86.8689 61.424 88.3729 60.624C89.9089 59.824 91.3649 59.536 92.7409 59.76C96.6769 60.4 98.6449 63.312 98.6449 68.496C98.6449 69.712 98.5329 71.424 98.3089 73.632C98.0849 75.808 97.9089 77.792 97.7809 79.584C97.6849 81.344 97.6849 83.248 97.7809 85.296C97.9089 87.344 98.3409 89.296 99.0769 91.152C99.8129 92.976 100.885 94.592 102.293 96C97.3009 97.024 94.1649 95.616 92.8849 91.776C92.4049 90.336 92.1329 88.528 92.0689 86.352C92.0049 84.144 92.0529 82.16 92.2129 80.4C92.4049 78.64 92.6609 76.496 92.9809 73.968C93.3009 71.408 93.5089 69.648 93.6049 68.688C94.0209 63.76 92.9649 61.28 90.4369 61.248C88.6449 61.248 86.5809 62.768 84.2449 65.808C82.7729 67.728 81.3809 70.288 80.0689 73.488C78.7889 76.656 77.7329 79.824 76.9009 82.992C76.1009 86.16 75.4769 88.816 75.0289 90.96C74.6129 93.072 74.3249 94.72 74.1649 95.904V96H72.9649ZM54.8209 79.44C54.8209 79.088 54.8209 78.224 54.8209 76.848C54.8529 75.472 54.8689 74.448 54.8689 73.776C54.8689 73.072 54.8049 72.192 54.6769 71.136C54.5809 70.048 54.4209 69.136 54.1969 68.4C53.9729 69.808 53.3809 71.152 52.4209 72.432C51.4929 73.712 50.4049 74.816 49.1569 75.744C47.9089 76.672 46.5649 77.632 45.1249 78.624C43.6849 79.616 42.3409 80.528 41.0929 81.36C39.8769 82.192 38.8209 83.136 37.9249 84.192C37.0609 85.248 36.5489 86.32 36.3889 87.408C36.1969 88.56 36.2929 89.584 36.6769 90.48C37.0929 91.344 37.6849 92 38.4529 92.448C39.2529 92.896 40.1329 93.2 41.0929 93.36C42.0849 93.488 43.1089 93.424 44.1649 93.168C45.2529 92.912 46.2449 92.496 47.1409 91.92C50.1169 89.968 52.6769 85.808 54.8209 79.44ZM130.814 65.328C131.134 68.496 130.606 72.992 129.23 78.816C128.686 81.216 127.806 84.512 126.59 88.704C125.406 93.472 124.254 97.056 123.134 99.456C121.918 102.016 120.478 103.824 118.814 104.88C116.67 106.256 114.27 106.56 111.614 105.792C110.302 105.408 109.054 104.784 107.87 103.92C106.686 103.056 105.71 102.064 104.942 100.944L105.71 100.368C105.998 100.784 106.302 101.184 106.622 101.568C106.974 101.952 107.358 102.304 107.774 102.624C108.19 102.976 108.606 103.296 109.022 103.584C109.47 103.872 109.934 104.128 110.414 104.352C110.894 104.576 111.39 104.752 111.902 104.88C114.27 105.584 116.414 105.328 118.334 104.112C119.838 103.152 121.15 101.472 122.27 99.072C123.326 96.8 124.414 93.456 125.534 89.04C125.534 89.072 125.486 89.168 125.39 89.328C125.294 89.488 125.23 89.6 125.198 89.664C123.598 92.48 121.934 94.336 120.206 95.232C119.182 95.776 118.11 96.048 116.99 96.048C110.622 96.048 106.606 92.384 104.942 85.056L99.3259 59.952H104.99L110.51 84.384C110.638 84.928 110.782 85.488 110.942 86.064C111.102 86.608 111.294 87.248 111.518 87.984C111.774 88.688 112.062 89.344 112.382 89.952C112.702 90.56 113.054 91.184 113.438 91.824C113.822 92.432 114.254 92.944 114.734 93.36C115.214 93.776 115.71 94.128 116.222 94.416C116.766 94.672 117.358 94.784 117.998 94.752C118.67 94.72 119.342 94.544 120.014 94.224C121.358 93.584 122.654 92.272 123.902 90.288C125.15 88.272 126.254 85.856 127.214 83.04C127.63 81.504 127.982 80.112 128.27 78.864C129.646 73.008 130.174 68.528 129.854 65.424C129.662 63.472 129.118 62 128.222 61.008C127.742 60.464 127.182 60.16 126.542 60.096C125.902 60 125.294 60.08 124.718 60.336C124.174 60.592 123.63 60.96 123.086 61.44C121.454 62.848 120.062 63.216 118.91 62.544C118.206 62.128 117.838 61.536 117.806 60.768C117.774 60 118.142 59.392 118.91 58.944C120.606 58.016 122.334 57.648 124.094 57.84C125.854 58 127.358 58.704 128.606 59.952C128.798 60.144 128.974 60.352 129.134 60.576C130.03 61.728 130.59 63.312 130.814 65.328ZM144.706 93.84C146.37 94.512 148.082 94.864 149.842 94.896C151.602 94.896 153.442 94.448 155.362 93.552C157.314 92.656 159.154 91.328 160.882 89.568L161.554 90.144C159.698 92.064 157.602 93.536 155.266 94.56C152.93 95.552 150.61 96.064 148.306 96.096C146.034 96.16 143.794 95.792 141.586 94.992C139.378 94.16 137.442 92.992 135.778 91.488C134.114 89.952 132.77 88.032 131.746 85.728C130.722 83.424 130.194 80.912 130.162 78.192C130.13 71.728 132.466 66.832 137.17 63.504C140.722 60.944 144.866 59.76 149.602 59.952C153.826 60.112 157.106 61.296 159.442 63.504C161.074 65.072 161.89 66.928 161.89 69.072C161.89 70.448 161.458 71.712 160.594 72.864C159.762 74.016 158.674 75.008 157.33 75.84C156.498 76.352 154.61 77.344 151.666 78.816C148.722 80.288 146.498 81.552 144.994 82.608C143.746 83.44 142.722 84.24 141.922 85.008C141.122 85.744 140.514 86.512 140.098 87.312C139.682 88.112 139.554 88.88 139.714 89.616C139.874 90.32 140.354 91.04 141.154 91.776C141.986 92.48 143.17 93.168 144.706 93.84ZM135.778 77.904C135.714 81.968 136.674 85.552 138.658 88.656C138.658 87.952 138.882 87.232 139.33 86.496C139.81 85.76 140.386 85.088 141.058 84.48C141.762 83.84 142.594 83.152 143.554 82.416C144.546 81.68 145.474 81.04 146.338 80.496C147.234 79.92 148.194 79.296 149.218 78.624C150.242 77.92 151.074 77.328 151.714 76.848C153.154 75.728 154.242 74.48 154.978 73.104C155.714 71.728 156.082 70.336 156.082 68.928C156.114 65.632 154.898 63.296 152.434 61.92C150.162 60.608 147.618 60.528 144.802 61.68C141.602 62.928 139.202 65.36 137.602 68.976C136.45 71.568 135.842 74.544 135.778 77.904Z" fill="black"/>
</svg>
