<svg width="37" height="17" viewBox="0 0 37 17" fill="none" xmlns="http://www.w3.org/2000/svg">
<path d="M1.22168 14.481L1.81798 11.934L1.22168 9.30339C1.20532 9.22522 1.05443 9.16523 0.874446 9.16523C0.689013 9.16523 0.539939 9.22522 0.527213 9.30339L0 11.934L0.525395 14.4792C0.539939 14.561 0.689013 14.6173 0.872628 14.6173C1.05443 14.6192 1.20532 14.5628 1.22168 14.481ZM4.95035 15.8936L5.45393 11.9595L4.95035 5.87287C4.93398 5.72016 4.7431 5.59654 4.51585 5.59654C4.28497 5.59654 4.09226 5.72016 4.08317 5.87287L3.63595 11.9595L4.08317 15.8936C4.09408 16.0499 4.28497 16.1699 4.51585 16.1699C4.7431 16.1699 4.93398 16.0499 4.95035 15.8936ZM8.66811 15.8299L9.08988 11.9631L8.66811 3.86038C8.6572 3.66767 8.43359 3.5186 8.15544 3.5186C7.8791 3.5186 7.65549 3.66767 7.64458 3.86038L7.2719 11.9631L7.64458 15.8336C7.65549 16.0208 7.8791 16.1717 8.15544 16.1717C8.43359 16.1699 8.6572 16.0208 8.66811 15.8299ZM12.3804 15.7736L12.7258 11.9631L12.3804 3.80038C12.3713 3.57677 12.115 3.39861 11.7987 3.39861C11.4787 3.39861 11.2242 3.57677 11.2151 3.80038L10.9079 11.9631L11.2169 15.7736C11.2242 15.9972 11.4805 16.1753 11.7987 16.1753C12.115 16.1735 12.3713 16.0008 12.3804 15.7736ZM16.0891 15.7227L16.3618 11.9667L16.0891 2.60597C16.0818 2.34782 15.7909 2.14239 15.4382 2.14239C15.0856 2.14239 14.7947 2.35146 14.7892 2.60779L14.5438 11.9631L14.7892 15.7227C14.7947 15.979 15.0856 16.1881 15.4382 16.1881C15.7909 16.1881 16.0818 15.9826 16.0891 15.7227ZM18.6833 16.1917L31.6728 16.199C34.2616 16.199 36.3595 14.1683 36.3595 11.6649C36.3595 9.16159 34.2616 7.13455 31.6728 7.13455C31.031 7.13455 30.4202 7.26181 29.8621 7.48542C29.4894 3.40225 25.948 0.198975 21.6284 0.198975C20.6057 0.200878 19.5914 0.383674 18.6324 0.738913C18.2761 0.873443 18.1834 1.00797 18.1798 1.27522V15.6554C18.184 15.7908 18.2375 15.9199 18.3302 16.0187C18.4229 16.1174 18.5485 16.1789 18.6833 16.1917Z" fill="black"/>
</svg>
