<svg width="49" height="48" viewBox="0 0 49 48" fill="none" xmlns="http://www.w3.org/2000/svg">
<path d="M47.2329 24C47.9327 24 48.5035 24.5677 48.4666 25.2666C48.2393 29.5686 46.8573 33.7388 44.4553 37.3337C41.8181 41.2805 38.0698 44.3566 33.6844 46.1731C29.299 47.9896 24.4734 48.4649 19.8178 47.5388C15.1623 46.6128 10.8859 44.327 7.52944 40.9706C4.17298 37.6141 1.8872 33.3377 0.961153 28.6822C0.035108 24.0266 0.510388 19.201 2.32689 14.8156C4.14339 10.4302 7.21953 6.68188 11.1663 4.04473C14.7612 1.64268 18.9314 0.26075 23.2334 0.0334365C23.9322 -0.00348939 24.5 0.567313 24.5 1.26713V1.26713C24.5 1.96694 23.9322 2.53036 23.2336 2.57164C19.4331 2.79622 15.7524 4.02836 12.5743 6.15189C9.04425 8.51057 6.29293 11.8631 4.66824 15.7854C3.04355 19.7078 2.61846 24.0238 3.44672 28.1878C4.27498 32.3517 6.31939 36.1765 9.32143 39.1786C12.3235 42.1806 16.1483 44.225 20.3122 45.0533C24.4762 45.8815 28.7922 45.4565 32.7146 43.8318C36.6369 42.2071 39.9894 39.4558 42.3481 35.9257C44.4716 32.7476 45.7038 29.0669 45.9284 25.2664C45.9696 24.5678 46.5331 24 47.2329 24V24Z" fill="black"/>
</svg>
