<svg width="33" height="30" viewBox="0 0 33 30" fill="none" xmlns="http://www.w3.org/2000/svg">
<path d="M14.2364 19.7534L11.7701 22.2284L0.633636 11.139L11.7247 -0.000976562L14.1997 2.46352L7.60269 9.08674L25.6017 9.04831C26.5192 9.04625 27.4281 9.22491 28.2765 9.57411C29.125 9.92331 29.8963 10.4362 30.5465 11.0835C31.1967 11.7308 31.7131 12.4998 32.0661 13.3467C32.4191 14.1935 32.6019 15.1016 32.6039 16.0191L32.6336 29.9921L29.1404 30.0009L29.1107 16.0278C29.1098 15.5691 29.0185 15.115 28.8421 14.6916C28.6657 14.2681 28.4076 13.8835 28.0826 13.5598C27.7576 13.2361 27.372 12.9795 26.9478 12.8048C26.5236 12.6301 26.0692 12.5407 25.6104 12.5416L7.03329 12.5817L14.2364 19.7534Z" fill="black"/>
</svg>
