<svg width="33" height="32" viewBox="0 0 33 32" fill="none" xmlns="http://www.w3.org/2000/svg">
<path d="M4.04299 0.600292C3.63967 0.210754 3.09949 -0.00479148 2.53879 8.08396e-05C1.97809 0.00495316 1.44174 0.229854 1.04525 0.626343C0.648759 1.02283 0.423859 1.55918 0.418986 2.11988C0.414114 2.68058 0.629659 3.22076 1.0192 3.62408L13.3688 15.9737L1.01706 28.3234C0.812814 28.5206 0.649901 28.7566 0.537826 29.0175C0.425751 29.2784 0.36676 29.559 0.364293 29.843C0.361825 30.1269 0.415932 30.4085 0.523456 30.6713C0.63098 30.9341 0.789767 31.1729 0.990554 31.3737C1.19134 31.5744 1.4301 31.7332 1.69291 31.8408C1.95572 31.9483 2.23731 32.0024 2.52126 31.9999C2.8052 31.9975 3.08581 31.9385 3.34671 31.8264C3.60762 31.7143 3.84358 31.5514 4.04085 31.3471L16.3926 18.9975L28.7423 31.3471C29.1456 31.7367 29.6858 31.9522 30.2465 31.9474C30.8072 31.9425 31.3435 31.7176 31.74 31.3211C32.1365 30.9246 32.3614 30.3883 32.3663 29.8276C32.3711 29.2669 32.1556 28.7267 31.7661 28.3234L19.4164 15.9737L31.7661 3.62408C32.1556 3.22076 32.3711 2.68058 32.3663 2.11988C32.3614 1.55918 32.1365 1.02283 31.74 0.626343C31.3435 0.229854 30.8072 0.00495316 30.2465 8.08396e-05C29.6858 -0.00479148 29.1456 0.210754 28.7423 0.600292L16.3926 12.9499L4.04299 0.600292Z" fill="black"/>
</svg>
