<svg width="27" height="16" viewBox="0 0 27 16" fill="none" xmlns="http://www.w3.org/2000/svg">
<path d="M26.2681 1.10026C25.9869 1.99874 25.5756 2.85118 25.0473 3.63041L25.0685 3.59681C24.5668 4.4331 23.9676 5.39931 23.2709 6.49545C22.6735 7.36086 22.3573 7.80887 22.3222 7.83949C22.1626 8.0394 22.0593 8.27839 22.0232 8.53167L22.0221 8.53951C22.0506 8.76771 22.1565 8.97923 22.3222 9.13872L22.7702 9.63826C25.1671 12.1016 26.5153 13.7995 26.8147 14.7322C26.8715 14.8854 26.8897 15.0502 26.8678 15.2121C26.846 15.374 26.7846 15.528 26.6892 15.6607L26.6915 15.6573C26.5787 15.7736 26.4413 15.8631 26.2893 15.9191C26.1373 15.9751 25.9746 15.9963 25.8134 15.981H25.8179H22.8654C22.488 15.981 22.1408 15.8488 21.8686 15.6293L21.872 15.6315C21.4834 15.3129 21.1267 14.9573 20.8068 14.5698L20.7967 14.5563C20.2808 13.9732 19.8231 13.4822 19.4236 13.0835C18.093 11.8186 17.1111 11.1861 16.4779 11.1861C16.2735 11.1678 16.0692 11.2213 15.9 11.3373L15.9033 11.3351C15.8306 11.4263 15.7773 11.5313 15.7464 11.6437C15.7156 11.7562 15.708 11.8737 15.7241 11.9892V11.9847C15.6806 12.5073 15.6664 13.0319 15.6816 13.5561V13.5371V14.8352C15.7134 14.9903 15.7025 15.151 15.65 15.3004C15.5975 15.4497 15.5054 15.582 15.3836 15.6831L15.3825 15.6842C14.8153 15.9404 14.1909 16.0436 13.5714 15.9832L13.586 15.9844C11.8905 15.9553 10.235 15.4642 8.79785 14.5642L8.83705 14.5866C7.17984 13.5875 5.75939 12.2404 4.67389 10.6384L4.64365 10.5914C3.58997 9.1863 2.66376 7.68998 1.87605 6.12024L1.79765 5.94775C1.27276 4.93126 0.811538 3.88313 0.416652 2.80942L0.34945 2.60222C0.166364 2.04482 0.0498189 1.46773 0.00224006 0.88297L0 0.854969C0 0.28898 0.333023 0.0059854 0.999068 0.0059854H3.94475C4.24255 -0.017339 4.53818 0.0726684 4.77246 0.257992L4.77022 0.255753C4.99422 0.501039 5.15999 0.802327 5.24175 1.13834L5.24511 1.15178C5.73175 2.54545 6.32604 3.89917 7.0226 5.20069L6.94756 5.04725C7.451 6.06987 8.06027 7.03689 8.76537 7.93245L8.73961 7.89773C9.33696 8.63097 9.80289 8.9976 10.1374 8.9976L10.1732 8.99872C10.252 8.99884 10.3294 8.97819 10.3976 8.93886C10.4659 8.89953 10.5225 8.84292 10.5619 8.77471L10.563 8.77247C10.6703 8.49175 10.7128 8.19044 10.6873 7.89101V7.89773V3.55313C10.6664 3.06053 10.5444 2.5775 10.3289 2.13404L10.3379 2.15533C10.2072 1.87349 10.0376 1.61145 9.83388 1.3769L9.83724 1.38138C9.64943 1.19388 9.52724 0.950692 9.48891 0.688084L9.48779 0.681364C9.48779 0.490959 9.57515 0.319594 9.71179 0.207591L9.71291 0.206471C9.85353 0.0776882 10.0375 0.00651929 10.2281 0.00710535H14.8807C14.9975 -0.00652481 15.1159 0.0090586 15.2252 0.0524572C15.3344 0.0958558 15.4312 0.165711 15.5068 0.255753L15.508 0.256872C15.6494 0.51826 15.7113 0.815322 15.686 1.11146V1.10586V6.89978C15.6682 7.1283 15.7214 7.35675 15.8384 7.55388L15.8361 7.5494C15.8771 7.6107 15.9326 7.66096 15.9977 7.69573C16.0627 7.7305 16.1353 7.74871 16.2091 7.74876C16.398 7.73649 16.5813 7.67384 16.7378 7.56732L16.7344 7.56956C17.039 7.36011 17.3011 7.12155 17.5285 6.85162L17.533 6.84602C18.2249 6.06309 18.8453 5.21969 19.3866 4.32595L19.4303 4.24754C19.8156 3.60913 20.2323 2.82286 20.6097 2.01532L20.6791 1.85068L21.1787 0.851609C21.2666 0.593291 21.4363 0.370623 21.662 0.217255C21.8877 0.0638881 22.1572 -0.0118436 22.4298 0.00150506H22.4264H25.3732C26.1692 0.00150506 26.4678 0.367755 26.2692 1.10026H26.2681Z" fill="black"/>
</svg>
