<?xml version="1.0" standalone="no"?>
<!DOCTYPE svg PUBLIC "-//W3C//DTD SVG 20010904//EN"
 "http://www.w3.org/TR/2001/REC-SVG-20010904/DTD/svg10.dtd">
<svg version="1.0" xmlns="http://www.w3.org/2000/svg"
 width="1136.000000pt" height="1136.000000pt" viewBox="0 0 1136.000000 1136.000000"
 preserveAspectRatio="xMidYMid meet">
<metadata>
Created by potrace 1.14, written by Peter Selinger 2001-2017
</metadata>
<g transform="translate(0.000000,1136.000000) scale(0.100000,-0.100000)"
fill="#000000" stroke="none">
<path d="M2816 9563 c-1 -1 -64 -4 -141 -8 -77 -3 -151 -8 -165 -10 -14 -2
-61 -7 -105 -10 -98 -9 -152 -14 -187 -19 -40 -6 -108 -17 -143 -23 -16 -2
-39 -6 -50 -7 -11 -2 -33 -6 -50 -9 -16 -4 -46 -9 -65 -12 -95 -15 -475 -116
-505 -134 -5 -3 -15 -6 -21 -7 -21 -3 -189 -72 -274 -113 -329 -156 -613 -370
-773 -582 -31 -42 -57 -81 -57 -87 0 -5 -4 -12 -9 -14 -13 -5 -75 -133 -100
-207 -24 -70 -48 -176 -56 -249 -7 -61 -7 -239 0 -277 3 -16 10 -57 16 -90 16
-92 33 -140 94 -270 41 -87 144 -255 157 -255 4 0 8 -6 8 -14 0 -8 3 -16 8
-18 4 -1 32 -32 62 -68 62 -73 105 -116 176 -178 27 -23 58 -51 69 -61 71 -63
325 -257 415 -316 25 -17 49 -36 53 -42 4 -7 13 -13 18 -13 6 0 36 -18 69 -40
97 -66 411 -260 421 -260 5 0 9 -3 9 -8 0 -4 15 -13 33 -21 17 -8 56 -29 85
-48 29 -18 56 -33 61 -33 5 0 16 -6 23 -12 7 -7 31 -23 53 -35 39 -21 89 -48
136 -75 13 -7 32 -19 42 -27 9 -8 17 -11 17 -7 0 3 17 -5 38 -18 20 -13 138
-80 262 -149 319 -177 314 -174 435 -245 120 -70 164 -98 298 -188 49 -32 96
-63 106 -69 23 -14 292 -206 316 -226 11 -10 65 -53 121 -97 130 -103 154
-124 293 -262 126 -125 126 -126 220 -249 87 -114 131 -185 200 -326 58 -116
124 -293 136 -365 3 -19 8 -42 10 -50 8 -30 17 -147 17 -220 -2 -150 -31 -299
-85 -435 -23 -57 -97 -196 -122 -229 -14 -18 -25 -38 -25 -44 0 -7 -4 -12 -8
-12 -5 0 -20 -16 -34 -35 -46 -65 -196 -210 -263 -255 -13 -8 -56 -37 -96 -63
-63 -43 -286 -157 -305 -157 -4 0 -36 -12 -72 -26 -35 -14 -72 -27 -81 -29 -9
-3 -50 -13 -91 -24 -204 -54 -386 -75 -655 -76 -224 0 -325 9 -515 46 -62 12
-197 47 -220 57 -8 3 -19 7 -25 7 -5 1 -23 7 -38 13 -16 7 -34 12 -41 12 -7 0
-16 3 -20 7 -3 4 -12 8 -19 9 -53 8 -362 162 -405 202 -7 6 -17 12 -22 12 -5
0 -15 6 -22 13 -7 6 -31 25 -53 42 -76 56 -227 201 -272 261 -12 16 -36 49
-55 74 -39 52 -64 91 -68 105 -2 6 -10 16 -17 23 -7 7 -13 20 -13 28 0 8 -4
14 -10 14 -5 0 -10 5 -10 11 0 24 -97 159 -160 220 -173 171 -356 168 -492 -9
-70 -91 -79 -117 -84 -225 -2 -48 4 -84 18 -125 29 -84 121 -216 213 -307 88
-87 96 -94 170 -145 28 -19 51 -38 53 -42 2 -5 10 -8 18 -8 8 0 14 -4 14 -10
0 -5 6 -10 14 -10 7 0 19 -7 26 -15 7 -8 21 -15 30 -15 10 0 20 -4 22 -9 11
-30 437 -202 583 -236 11 -2 63 -16 115 -30 52 -14 111 -28 130 -31 19 -3 51
-9 70 -14 19 -5 51 -11 70 -14 19 -3 46 -8 60 -11 14 -3 43 -7 65 -10 22 -3
54 -7 70 -10 51 -8 128 -17 165 -21 19 -1 71 -6 115 -10 102 -10 724 -11 790
-2 28 4 79 10 115 13 36 4 92 10 125 15 33 5 78 12 100 15 22 3 51 8 65 11 14
2 36 6 50 9 66 13 127 25 150 30 14 3 39 8 55 11 17 3 57 12 90 20 33 9 67 18
75 20 110 26 334 96 387 120 17 8 36 14 42 14 6 0 19 4 29 10 9 5 51 23 92 41
41 17 86 37 100 43 69 34 208 110 232 127 14 10 29 19 32 19 4 0 12 5 19 10 7
6 50 36 97 67 404 266 600 536 676 928 9 51 12 231 4 277 -5 24 -10 57 -13 75
-5 32 -31 119 -47 158 -57 139 -81 193 -122 264 -26 46 -48 87 -48 92 0 4 -3
9 -8 11 -4 2 -27 32 -51 68 -106 156 -260 322 -412 444 -46 37 -92 74 -103 83
-44 36 -262 177 -391 253 -124 73 -442 240 -457 240 -3 0 -46 18 -95 40 -48
23 -97 45 -108 50 -11 5 -42 19 -70 31 -27 13 -52 23 -55 24 -3 1 -21 8 -40
17 -19 8 -84 37 -145 62 -60 26 -126 55 -145 63 -19 9 -53 23 -75 33 -144 62
-270 118 -333 147 -39 18 -74 33 -77 34 -2 0 -89 44 -192 96 -103 53 -203 103
-220 112 -18 8 -33 19 -33 23 0 4 -9 8 -20 8 -11 0 -20 5 -20 10 0 6 -4 10
-10 10 -22 0 -456 288 -480 319 -3 4 -25 22 -50 41 -86 68 -244 221 -264 258
-5 9 -16 23 -23 30 -7 8 -26 30 -41 50 -15 21 -33 43 -39 50 -7 7 -13 17 -13
22 0 5 -6 15 -13 22 -15 15 -67 104 -68 115 0 5 -6 15 -13 23 -19 22 -102 205
-110 245 -2 6 -12 42 -24 80 -53 178 -73 321 -74 540 -1 198 12 289 69 455 31
91 116 258 144 280 3 3 10 12 15 21 54 97 364 389 412 389 7 0 12 4 12 9 0 5
10 13 23 17 12 4 24 10 27 14 4 6 156 82 170 86 3 0 19 6 35 13 59 24 223 79
251 84 16 3 54 12 84 20 30 8 71 17 90 21 19 3 44 8 56 10 12 2 45 7 75 11 30
3 65 8 79 11 63 12 377 18 485 9 186 -15 186 -15 315 -41 175 -35 464 -130
482 -158 4 -6 8 -8 8 -3 0 12 206 -98 299 -160 148 -99 291 -230 383 -353 23
-30 47 -60 52 -65 13 -12 19 -22 80 -129 26 -43 46 -82 46 -86 0 -5 3 -10 8
-12 4 -1 21 -23 37 -47 48 -71 142 -158 200 -186 69 -32 158 -42 219 -24 25 7
46 17 46 21 0 4 6 8 14 8 18 0 101 82 129 128 42 67 54 114 51 192 -2 81 -35
179 -71 218 -7 7 -13 18 -13 23 0 6 -6 17 -12 24 -7 8 -40 47 -72 87 -33 40
-90 100 -128 133 -73 64 -245 184 -265 185 -6 0 -13 4 -15 8 -9 22 -347 168
-458 197 -3 1 -45 14 -95 28 -90 28 -133 40 -190 53 -16 4 -32 8 -35 9 -26 7
-117 25 -145 29 -11 2 -27 6 -35 9 -8 3 -51 10 -95 17 -44 6 -91 13 -105 15
-151 23 -269 33 -445 41 -131 6 -435 11 -439 7z"/>
<path d="M6659 9485 c-4 -3 -19 -7 -35 -10 -61 -8 -139 -22 -139 -25 0 -2 -12
-5 -50 -13 -79 -17 -235 -100 -290 -154 -30 -30 -78 -87 -92 -109 -37 -57 -91
-190 -99 -242 -3 -21 -8 -40 -10 -44 -3 -4 -7 -27 -9 -50 -3 -24 -8 -54 -11
-68 -7 -27 -12 -6817 -6 -6837 3 -9 30 -11 101 -8 53 2 107 7 121 10 14 3 39
8 55 11 101 18 265 83 301 118 8 9 19 16 23 16 13 0 108 96 138 141 50 73 95
174 108 241 2 11 6 27 9 36 3 9 7 33 10 52 3 19 9 46 12 60 8 27 16 6820 9
6856 -4 19 -11 21 -60 18 -30 -2 -59 -5 -64 -8 -5 -4 -11 -1 -13 5 -2 5 -6 8
-9 4z"/>
<path d="M10582 9165 c-176 -176 -556 -554 -844 -841 -578 -576 -941 -947
-1233 -1260 -60 -64 -126 -134 -145 -155 -19 -20 -56 -61 -82 -91 -26 -30 -60
-68 -75 -84 -36 -38 -96 -107 -150 -171 -24 -27 -53 -61 -65 -75 -13 -14 -36
-42 -53 -63 -16 -20 -39 -48 -50 -60 -132 -153 -475 -608 -475 -631 0 -3 -12
-22 -27 -41 -16 -20 -26 -37 -24 -37 5 -1 -4 -17 -45 -81 -10 -16 -19 -32 -19
-35 0 -3 -4 -11 -8 -18 -30 -47 -141 -273 -172 -351 -79 -200 -112 -398 -90
-544 9 -61 47 -187 55 -187 4 0 10 -10 14 -23 6 -24 81 -109 106 -120 8 -4 29
-15 45 -26 17 -10 53 -22 80 -26 209 -34 367 25 505 191 36 44 116 207 151
307 11 34 25 71 29 82 8 18 57 187 66 228 2 9 6 26 9 37 3 11 7 30 10 43 2 12
9 43 15 68 6 26 13 53 14 60 2 8 6 32 11 54 45 233 155 504 237 583 49 48 81
67 139 82 138 37 250 -12 340 -151 74 -113 97 -170 147 -374 32 -127 44 -188
48 -245 1 -19 3 -35 5 -35 1 0 3 -9 4 -20 2 -11 6 -36 10 -55 4 -19 8 -51 11
-70 2 -19 6 -46 8 -60 5 -24 18 -104 31 -185 4 -22 8 -51 10 -65 1 -14 8 -50
14 -81 6 -30 14 -71 16 -90 3 -19 11 -72 19 -119 8 -47 17 -98 20 -115 7 -44
35 -197 40 -220 3 -11 14 -67 26 -125 11 -58 23 -114 26 -125 2 -11 7 -33 10
-50 3 -16 16 -75 30 -130 14 -55 27 -107 29 -116 2 -8 25 -80 51 -160 26 -79
49 -146 49 -149 8 -29 100 -261 128 -320 41 -89 70 -154 72 -160 3 -10 72
-146 105 -205 86 -158 243 -405 262 -413 5 -2 8 -10 8 -17 0 -7 3 -15 8 -17 4
-1 36 -42 72 -90 59 -79 90 -106 113 -100 12 3 38 3 180 0 70 -2 127 1 127 5
0 5 4 6 9 3 8 -5 44 -6 164 -5 9 0 64 0 122 0 58 0 111 0 118 0 6 0 36 -1 65
-3 28 -2 52 0 52 3 0 3 19 3 42 0 24 -3 73 -4 111 -1 37 3 74 2 82 -3 33 -18
11 11 -42 58 -88 77 -217 210 -300 310 -105 126 -105 126 -133 168 -14 20 -28
37 -32 37 -5 0 -8 4 -8 8 0 8 -98 161 -120 189 -6 7 -10 14 -10 16 0 2 -23 44
-51 93 -100 173 -258 500 -319 659 -5 11 -15 36 -23 55 -12 29 -27 69 -32 90
-1 3 -4 12 -8 20 -11 30 -69 215 -73 235 -2 11 -20 79 -40 150 -19 72 -37 138
-39 148 -2 10 -7 27 -10 37 -3 10 -8 27 -10 37 -2 10 -11 45 -20 78 -9 33 -18
67 -20 75 -2 8 -11 40 -20 70 -9 30 -18 66 -21 80 -3 14 -9 39 -14 55 -11 37
-71 264 -75 288 -2 10 -14 52 -25 95 -12 42 -23 84 -25 92 -2 8 -13 47 -25 85
-12 39 -23 77 -25 85 -7 32 -75 229 -105 305 -49 124 -137 287 -185 342 -5 6
-21 26 -35 44 -27 35 -101 110 -145 148 -40 34 -148 101 -162 101 -7 0 -13 4
-13 8 0 5 -22 15 -50 22 -27 7 -50 18 -50 23 0 6 -3 8 -6 4 -3 -3 -27 1 -52 8
-38 12 -120 23 -187 27 -26 2 -178 -13 -186 -18 -10 -6 -47 -15 -66 -16 -7 -1
-13 -6 -13 -11 0 -6 -3 -7 -6 -4 -13 13 -144 -66 -201 -122 -71 -69 -104 -117
-166 -239 -45 -89 -123 -301 -133 -360 -3 -15 -7 -34 -10 -42 -3 -8 -14 -58
-25 -110 -20 -97 -20 -100 -33 -135 -5 -11 -14 -37 -22 -58 -56 -150 -197
-261 -344 -271 -64 -4 -145 29 -188 78 -60 68 -70 152 -38 297 9 39 111 266
125 279 3 3 17 25 30 50 25 46 143 231 161 253 6 7 38 50 72 97 34 47 65 87
68 90 3 3 30 37 59 75 30 39 59 75 65 80 6 6 23 26 37 45 15 19 35 44 45 55
16 18 43 50 124 148 8 10 24 29 35 41 29 32 92 104 155 176 30 35 66 75 80 90
14 15 59 64 100 110 41 46 107 117 145 158 39 41 89 96 113 121 262 280 1063
1086 2030 2044 176 174 320 317 319 318 -1 1 -50 2 -108 3 l-106 1 -321 -320z"/>
</g>
</svg>
